# xmcd
#
# Track frame offsets:
#	150
#	8518
#	19964
#	29084
#	40749
#	50245
#	61160
#	73201
#	85477
#	95112
#	105278
#	113944
#
# Disc length: 1686 seconds
#
# Revision: 1
# Processed by: cddbd v1.5.2PL0 Copyright (c) Steve Scherf et al.
# Submitted via: audiograbber 1.83.01
#
DISCID=a306940c
DTITLE=Skeeter Davis and Porter Wagoner - Sing Duets
DYEAR=1962
DGENRE=Country
TTITLE0=Rock-A-Bye Boogie
TTITLE1=Have I Told You Lately That I Love You
TTITLE2=Above And Beyond (The Call Of Love)
TTITLE3=Heaven Help Me
TTITLE4=A Little Bitty Tear
TTITLE5=Sorrow's Tearing Down The House
TTITLE6=Gonna Find Me A Bluebird
TTITLE7=Violet And A Rose
TTITLE8=There's Always One (Who Loves Me A Lot)
TTITLE9=We Could
TTITLE10=My Greatest Weakness
TTITLE11=Anymore
EXTD=
EXTT0=
EXTT1=
EXTT2=
EXTT3=
EXTT4=
EXTT5=
EXTT6=
EXTT7=
EXTT8=
EXTT9=
EXTT10=
EXTT11=
PLAYORDER=
